<?xml version="1.0" encoding="UTF-8"?>
<!-- Generator: visioncortex VTracer 0.6.3 -->
<svg version="1.1" xmlns="http://www.w3.org/2000/svg" width="377" height="377">
<path d="M0 0 C1.42 -0 2.83 -0 4.25 -0.01 C7.19 -0.01 10.14 -0 13.09 0 C16.84 0.02 20.59 0.01 24.34 -0 C27.25 -0.01 30.17 -0.01 33.09 -0 C34.47 -0 35.85 -0 37.23 -0.01 C45.33 -0.03 53.22 0.17 61.09 2.27 C61.42 2.6 61.75 2.93 62.09 3.27 C64.42 3.63 66.76 3.97 69.09 4.27 C69.09 4.93 69.09 5.59 69.09 6.27 C70.39 6.2 70.39 6.2 71.72 6.14 C75.22 6.27 77.84 7.03 81.09 8.27 C81.09 8.93 81.09 9.59 81.09 10.27 C82.05 10.42 82.05 10.42 83.03 10.58 C87.16 11.5 91.1 12.88 95.09 14.27 C95.09 14.93 95.09 15.59 95.09 16.27 C95.77 16.35 96.45 16.43 97.16 16.52 C99.81 17.19 101.41 17.94 103.72 19.33 C106.88 21.51 106.88 21.51 110.09 21.27 C110.75 21.93 111.41 22.59 112.09 23.27 C113.75 23.95 115.42 24.61 117.09 25.27 C118.08 25.93 119.07 26.59 120.09 27.27 C120.09 27.93 120.09 28.59 120.09 29.27 C121.08 29.27 122.07 29.27 123.09 29.27 C123.09 29.93 123.09 30.59 123.09 31.27 C124.08 31.27 125.07 31.27 126.09 31.27 C126.09 31.93 126.09 32.59 126.09 33.27 C126.88 33.58 127.66 33.88 128.47 34.2 C131.09 35.27 131.09 35.27 133.09 36.27 C133.09 36.93 133.09 37.59 133.09 38.27 C133.75 38.27 134.41 38.27 135.09 38.27 C135.09 38.93 135.09 39.59 135.09 40.27 C136.74 40.93 138.39 41.59 140.09 42.27 C140.09 42.93 140.09 43.59 140.09 44.27 C140.63 44.47 141.16 44.68 141.71 44.89 C145.09 46.84 147.52 49.53 150.22 52.33 C153.79 56.27 153.79 56.27 158.09 59.27 C158.09 59.93 158.09 60.59 158.09 61.27 C158.75 61.27 159.41 61.27 160.09 61.27 C160.09 61.93 160.09 62.59 160.09 63.27 C160.75 63.27 161.41 63.27 162.09 63.27 C163.5 64.87 163.5 64.87 165.03 67.02 C165.79 68.06 165.79 68.06 166.56 69.12 C167.07 69.83 167.57 70.54 168.09 71.27 C168.65 71.95 169.21 72.64 169.79 73.34 C171.09 75.27 171.09 75.27 171.09 78.27 C171.75 78.27 172.41 78.27 173.09 78.27 C173.75 79.92 174.41 81.57 175.09 83.27 C175.75 83.27 176.41 83.27 177.09 83.27 C177.53 84.72 177.53 84.72 177.97 86.2 C178.74 89.37 178.74 89.37 181.09 90.27 C183.49 93.68 184.09 94.97 184.09 99.27 C184.75 99.27 185.41 99.27 186.09 99.27 C187.1 101.18 188.1 103.1 189.09 105.02 C189.65 106.08 190.21 107.15 190.78 108.25 C192.09 111.27 192.09 111.27 192.09 115.27 C192.75 115.27 193.41 115.27 194.09 115.27 C195.7 118.77 196.31 121.41 196.09 125.27 C196.75 125.27 197.41 125.27 198.09 125.27 C199.69 129.44 200.31 132.8 200.09 137.27 C200.75 137.27 201.41 137.27 202.09 137.27 C206.89 152.7 206.71 168.27 206.62 184.26 C206.59 188.01 206.61 191.76 206.63 195.51 C206.71 210.77 206.67 225.55 202.09 240.27 C201.43 240.27 200.77 240.27 200.09 240.27 C200.13 241.13 200.18 242 200.22 242.89 C200.09 246.39 199.33 249.01 198.09 252.27 C197.43 252.27 196.77 252.27 196.09 252.27 C196.13 252.99 196.18 253.71 196.22 254.45 C196.08 257.47 195.34 259.53 194.09 262.27 C193.43 262.27 192.77 262.27 192.09 262.27 C191.98 262.97 191.87 263.68 191.75 264.4 C191.03 267.54 189.9 270.17 188.53 273.08 C188.08 274.05 187.62 275.03 187.15 276.04 C186.8 276.77 186.45 277.51 186.09 278.27 C185.43 278.27 184.77 278.27 184.09 278.27 C183.99 279.38 183.89 280.49 183.78 281.64 C183.44 283.44 183.44 283.44 183.09 285.27 C182.1 285.93 181.11 286.59 180.09 287.27 C179.02 289.57 178.01 291.9 177.09 294.27 C176.43 294.27 175.77 294.27 175.09 294.27 C174.43 295.92 173.77 297.57 173.09 299.27 C172.43 299.27 171.77 299.27 171.09 299.27 C171.01 299.81 170.93 300.35 170.84 300.91 C169.84 304.08 168.12 306.33 166.16 309.02 C165.45 310 164.74 310.99 164 312 C163.06 313.12 163.06 313.12 162.09 314.27 C161.43 314.27 160.77 314.27 160.09 314.27 C160.09 314.93 160.09 315.59 160.09 316.27 C159.43 316.27 158.77 316.27 158.09 316.27 C158.09 316.93 158.09 317.59 158.09 318.27 C156.63 319.71 156.63 319.71 154.59 321.39 C150.74 324.64 147.23 328.11 143.76 331.76 C142.09 333.27 142.09 333.27 140.09 333.27 C140.09 333.93 140.09 334.59 140.09 335.27 C138.44 335.93 136.79 336.59 135.09 337.27 C135.09 337.93 135.09 338.59 135.09 339.27 C134.43 339.27 133.77 339.27 133.09 339.27 C133.09 339.93 133.09 340.59 133.09 341.27 C128.71 344.27 128.71 344.27 126.09 344.27 C126.09 344.93 126.09 345.59 126.09 346.27 C125.1 346.27 124.11 346.27 123.09 346.27 C123.09 346.93 123.09 347.59 123.09 348.27 C122.1 348.27 121.11 348.27 120.09 348.27 C120.09 348.93 120.09 349.59 120.09 350.27 C119.1 350.27 118.11 350.27 117.09 350.27 C117.09 350.93 117.09 351.59 117.09 352.27 C114.09 354.27 114.09 354.27 110.09 354.27 C109.76 354.93 109.43 355.59 109.09 356.27 C106.95 357.55 106.95 357.55 104.28 358.89 C103.41 359.34 102.54 359.78 101.64 360.24 C99.09 361.27 99.09 361.27 95.09 361.27 C95.09 361.93 95.09 362.59 95.09 363.27 C93.51 363.94 91.93 364.61 90.34 365.27 C89.46 365.64 88.58 366.01 87.67 366.39 C85.09 367.27 85.09 367.27 81.09 367.27 C81.09 367.93 81.09 368.59 81.09 369.27 C76.92 370.86 73.56 371.48 69.09 371.27 C69.09 371.93 69.09 372.59 69.09 373.27 C67.96 373.41 66.82 373.55 65.66 373.7 C62.29 373.88 62.29 373.88 61.09 375.27 C52.56 377.53 43.96 377.56 35.19 377.53 C33.77 377.53 32.36 377.53 30.94 377.54 C27.99 377.54 25.05 377.54 22.1 377.53 C18.35 377.51 14.6 377.52 10.85 377.53 C7.94 377.54 5.02 377.54 2.1 377.53 C0.72 377.53 -0.66 377.53 -2.04 377.54 C-10.14 377.56 -18.03 377.36 -25.91 375.27 C-26.24 374.94 -26.57 374.61 -26.91 374.27 C-29.23 373.9 -31.57 373.56 -33.91 373.27 C-33.91 372.61 -33.91 371.95 -33.91 371.27 C-34.77 371.31 -35.64 371.35 -36.53 371.39 C-40.03 371.26 -42.65 370.51 -45.91 369.27 C-45.91 368.61 -45.91 367.95 -45.91 367.27 C-46.55 367.16 -47.19 367.06 -47.84 366.95 C-51.97 366.03 -55.91 364.65 -59.91 363.27 C-59.91 362.61 -59.91 361.95 -59.91 361.27 C-60.59 361.18 -61.27 361.1 -61.97 361.02 C-64.62 360.34 -66.22 359.59 -68.53 358.2 C-71.69 356.02 -71.69 356.02 -74.91 356.27 C-74.91 355.61 -74.91 354.95 -74.91 354.27 C-75.44 354.16 -75.98 354.06 -76.53 353.95 C-79.53 353.08 -82.14 351.71 -84.91 350.27 C-84.91 349.61 -84.91 348.95 -84.91 348.27 C-85.9 348.27 -86.89 348.27 -87.91 348.27 C-87.91 347.61 -87.91 346.95 -87.91 346.27 C-88.9 346.27 -89.89 346.27 -90.91 346.27 C-90.91 345.61 -90.91 344.95 -90.91 344.27 C-91.69 343.96 -92.47 343.65 -93.28 343.33 C-95.91 342.27 -95.91 342.27 -97.91 341.27 C-97.91 340.61 -97.91 339.95 -97.91 339.27 C-98.57 339.27 -99.23 339.27 -99.91 339.27 C-99.91 338.61 -99.91 337.95 -99.91 337.27 C-101.56 336.61 -103.21 335.95 -104.91 335.27 C-104.91 334.61 -104.91 333.95 -104.91 333.27 C-105.44 333.06 -105.97 332.86 -106.52 332.64 C-109.91 330.69 -112.34 328.01 -115.03 325.2 C-118.6 321.26 -118.6 321.26 -122.91 318.27 C-122.91 317.61 -122.91 316.95 -122.91 316.27 C-123.57 316.27 -124.23 316.27 -124.91 316.27 C-124.91 315.61 -124.91 314.95 -124.91 314.27 C-125.57 314.27 -126.23 314.27 -126.91 314.27 C-128.31 312.66 -128.31 312.66 -129.84 310.52 C-130.35 309.82 -130.85 309.12 -131.37 308.41 C-131.88 307.7 -132.38 306.99 -132.91 306.27 C-133.74 305.24 -133.74 305.24 -134.6 304.19 C-135.91 302.27 -135.91 302.27 -135.91 299.27 C-136.57 299.27 -137.23 299.27 -137.91 299.27 C-138.57 297.62 -139.23 295.97 -139.91 294.27 C-140.57 294.27 -141.23 294.27 -141.91 294.27 C-142.17 293.7 -142.44 293.13 -142.71 292.55 C-143.06 291.82 -143.42 291.08 -143.78 290.33 C-144.13 289.6 -144.48 288.87 -144.84 288.11 C-145.77 286.1 -145.77 286.1 -147.91 285.27 C-148.31 282.94 -148.65 280.61 -148.91 278.27 C-149.57 278.27 -150.23 278.27 -150.91 278.27 C-152.2 275.7 -153.49 273.14 -154.78 270.58 C-155.15 269.86 -155.51 269.14 -155.89 268.39 C-161.22 257.77 -161.22 257.77 -160.91 252.27 C-161.57 252.27 -162.23 252.27 -162.91 252.27 C-164.5 248.09 -165.12 244.73 -164.91 240.27 C-165.57 240.27 -166.23 240.27 -166.91 240.27 C-171.7 224.84 -171.53 209.26 -171.43 193.27 C-171.4 189.52 -171.42 185.77 -171.44 182.02 C-171.52 166.76 -171.48 151.98 -166.91 137.27 C-166.25 137.27 -165.59 137.27 -164.91 137.27 C-164.95 136.4 -164.99 135.53 -165.03 134.64 C-164.9 131.14 -164.15 128.52 -162.91 125.27 C-162.25 125.27 -161.59 125.27 -160.91 125.27 C-160.95 124.54 -160.99 123.82 -161.03 123.08 C-160.9 120.06 -160.15 118 -158.91 115.27 C-158.25 115.27 -157.59 115.27 -156.91 115.27 C-156.79 114.56 -156.68 113.86 -156.57 113.13 C-155.84 109.99 -154.71 107.36 -153.34 104.45 C-152.89 103.48 -152.43 102.5 -151.96 101.5 C-151.62 100.76 -151.27 100.02 -150.91 99.27 C-150.25 99.27 -149.59 99.27 -148.91 99.27 C-148.78 98.15 -148.66 97.04 -148.53 95.89 C-147.91 92.27 -147.91 92.27 -145.91 90.27 C-144.92 89.77 -144.92 89.77 -143.91 89.27 C-143.18 87.29 -142.51 85.29 -141.91 83.27 C-141.25 83.27 -140.59 83.27 -139.91 83.27 C-139.25 81.62 -138.59 79.97 -137.91 78.27 C-137.25 78.27 -136.59 78.27 -135.91 78.27 C-135.82 77.72 -135.74 77.18 -135.65 76.62 C-134.65 73.45 -132.93 71.2 -130.97 68.52 C-130.26 67.53 -129.55 66.55 -128.82 65.53 C-128.19 64.78 -127.56 64.04 -126.91 63.27 C-126.25 63.27 -125.59 63.27 -124.91 63.27 C-124.91 62.61 -124.91 61.95 -124.91 61.27 C-124.25 61.27 -123.59 61.27 -122.91 61.27 C-122.91 60.61 -122.91 59.95 -122.91 59.27 C-121.44 57.82 -121.44 57.82 -119.41 56.14 C-115.56 52.89 -112.05 49.42 -108.57 45.77 C-106.91 44.27 -106.91 44.27 -104.91 44.27 C-104.91 43.61 -104.91 42.95 -104.91 42.27 C-103.26 41.61 -101.61 40.95 -99.91 40.27 C-99.91 39.61 -99.91 38.95 -99.91 38.27 C-99.25 38.27 -98.59 38.27 -97.91 38.27 C-97.91 37.61 -97.91 36.95 -97.91 36.27 C-93.52 33.27 -93.52 33.27 -90.91 33.27 C-90.91 32.61 -90.91 31.95 -90.91 31.27 C-89.92 31.27 -88.93 31.27 -87.91 31.27 C-87.91 30.61 -87.91 29.95 -87.91 29.27 C-86.92 29.27 -85.93 29.27 -84.91 29.27 C-84.91 28.61 -84.91 27.95 -84.91 27.27 C-81.92 25.74 -79.09 24.33 -75.91 23.27 C-75.25 22.61 -74.59 21.95 -73.91 21.27 C-72.24 20.59 -70.58 19.93 -68.91 19.27 C-67.64 18.46 -67.64 18.46 -66.34 17.64 C-63.91 16.27 -63.91 16.27 -59.91 16.27 C-59.91 15.61 -59.91 14.95 -59.91 14.27 C-58.33 13.59 -56.74 12.93 -55.16 12.27 C-54.27 11.89 -53.39 11.52 -52.48 11.14 C-49.91 10.27 -49.91 10.27 -45.91 10.27 C-45.91 9.61 -45.91 8.95 -45.91 8.27 C-41.73 6.67 -38.37 6.05 -33.91 6.27 C-33.91 5.61 -33.91 4.95 -33.91 4.27 C-32.2 4.05 -32.2 4.05 -30.47 3.83 C-27.1 3.65 -27.1 3.65 -25.91 2.27 C-17.37 -0 -8.77 -0.03 0 0 Z " fill="#000000" transform="translate(170.90625,-0.265625)"/>
<path d="M0 0 C2.01 0.95 2.01 0.95 3.98 2.12 C4.72 2.55 5.46 2.99 6.23 3.44 C7.02 3.91 7.81 4.39 8.62 4.88 C10.34 5.88 12.05 6.89 13.76 7.9 C14.63 8.42 15.5 8.93 16.4 9.46 C20.42 11.84 24.46 14.17 28.5 16.5 C30.09 17.42 31.69 18.34 33.28 19.27 C34.45 19.95 34.45 19.95 35.66 20.64 C37.94 21.96 40.22 23.29 42.5 24.61 C44.02 25.49 45.54 26.37 47.06 27.25 C47.83 27.69 48.59 28.14 49.38 28.59 C54.04 31.29 58.71 33.99 63.38 36.68 C75.62 43.73 87.84 50.8 100 58 C98.66 62.03 96.94 62.46 93.27 64.51 C92.68 64.84 92.1 65.18 91.49 65.52 C89.6 66.58 87.71 67.64 85.81 68.69 C83.97 69.72 82.14 70.76 80.3 71.79 C79.07 72.48 77.84 73.17 76.61 73.85 C73.41 75.63 70.25 77.44 67.13 79.34 C66.5 79.71 65.87 80.09 65.22 80.48 C63.49 81.52 61.76 82.58 60.03 83.64 C56.64 85.16 55.44 85.22 52 84 C50.16 83.19 50.16 83.19 48.42 82.21 C47.74 81.83 47.07 81.45 46.38 81.07 C45.65 80.65 44.93 80.24 44.19 79.81 C43.42 79.38 42.66 78.95 41.87 78.51 C16.02 63.86 16.02 63.86 7.36 58.31 C5.03 56.76 5.03 56.76 2.12 57.06 C-1.69 58.21 -4.58 59.96 -8 62 C-8.66 62 -9.32 62 -10 62 C-10 62.66 -10 63.32 -10 64 C-9.12 64.27 -8.25 64.53 -7.35 64.81 C-4.11 65.96 -1.42 67.32 1.54 69.05 C3.11 69.97 3.11 69.97 4.71 70.9 C5.81 71.55 6.92 72.2 8.06 72.88 C9.22 73.55 10.38 74.23 11.54 74.9 C13.31 75.93 15.07 76.96 16.84 77.99 C23.19 81.7 29.58 85.34 35.97 88.97 C36.76 89.41 37.54 89.86 38.34 90.32 C39.1 90.75 39.86 91.18 40.65 91.62 C42.33 92.6 43.97 93.64 45.6 94.71 C46.47 95.27 47.33 95.83 48.22 96.4 C49.38 97.18 49.38 97.18 50.56 97.98 C53.85 99.36 55.59 98.96 59 98 C62.05 96.59 62.05 96.59 65.11 94.75 C65.96 94.26 65.96 94.26 66.83 93.76 C68.66 92.71 70.49 91.63 72.31 90.56 C73.59 89.82 74.86 89.08 76.14 88.35 C79.76 86.24 83.38 84.12 87 82 C88.59 81.07 90.18 80.14 91.78 79.21 C94.42 77.66 97.07 76.1 99.71 74.54 C114.65 65.7 129.68 57.02 144.72 48.36 C151.91 44.22 159.07 40.04 166.19 35.79 C170.89 33 170.89 33 172 33 C172.56 40.58 172.98 48.15 173.24 55.74 C173.37 59.27 173.54 62.79 173.81 66.31 C175.21 84.8 175.21 84.8 172 93 C166.45 99.46 158.65 102.65 150.9 105.79 C147.26 107.31 144.07 109.16 140.71 111.23 C138.74 112.36 136.78 113.49 134.81 114.62 C133.73 115.25 132.66 115.87 131.55 116.51 C124.04 120.84 116.51 125.14 108.98 129.44 C101.89 133.48 94.82 137.55 87.75 141.62 C86.65 142.26 85.55 142.89 84.42 143.54 C79.5 146.38 74.59 149.23 69.71 152.14 C68.93 152.61 68.14 153.07 67.33 153.56 C65.91 154.41 64.49 155.26 63.07 156.12 C57.19 159.64 57.19 159.64 54 160 C51.76 159.07 51.76 159.07 49.27 157.56 C48.34 157 47.4 156.45 46.44 155.87 C45.43 155.25 44.42 154.64 43.38 154 C41.2 152.7 39.02 151.39 36.84 150.09 C35.14 149.08 35.14 149.08 33.42 148.04 C27.98 144.8 22.49 141.65 17 138.5 C8.69 133.72 0.4 128.9 -7.88 124.06 C-21.19 116.27 -34.6 108.64 -48 101 C-54.93 97.04 -54.93 97.04 -62 93 C-62 72.87 -62 52.74 -62 32 C-55.07 28.04 -48.14 24.08 -41 20 C-36.81 17.57 -32.62 15.14 -28.44 12.69 C-22.68 9.32 -22.68 9.32 -19.88 7.7 C-17.84 6.49 -15.81 5.25 -13.79 3.99 C-12.74 3.34 -11.68 2.69 -10.6 2.02 C-9.65 1.42 -8.69 0.82 -7.71 0.2 C-4.51 -1.21 -3.27 -1.12 0 0 Z " fill="#6DBC4B" transform="translate(133,164)"/>
<path d="M0 0 C1.75 0.9 3.47 1.86 5.16 2.85 C6.19 3.45 7.22 4.04 8.27 4.66 C9.93 5.63 9.93 5.63 11.62 6.62 C12.79 7.3 13.96 7.98 15.12 8.66 C17.55 10.07 19.97 11.49 22.4 12.9 C27.92 16.12 33.46 19.31 39 22.5 C41.16 23.75 43.33 25 45.49 26.25 C49.85 28.76 54.21 31.27 58.57 33.79 C91.18 52.58 91.18 52.58 99.03 57.31 C101.97 59.05 101.97 59.05 105.09 60.37 C113.27 64.25 113.27 64.25 115.2 68.89 C115.76 72.49 115.92 75.92 115.95 79.57 C115.98 80.88 116.02 82.2 116.05 83.55 C116.11 86.33 116.13 89.1 116.11 91.88 C116.1 94.71 116.17 97.52 116.32 100.34 C117.47 122.82 117.47 122.82 111.94 129.49 C106.73 133.75 100.9 136.42 94.68 138.9 C91.19 140.33 88.16 142.13 84.95 144.12 C83.05 145.23 81.15 146.33 79.25 147.44 C77.32 148.56 75.39 149.68 73.45 150.81 C72.54 151.33 71.64 151.86 70.7 152.4 C68.86 153.49 67.05 154.62 65.25 155.78 C64.38 156.34 63.51 156.9 62.61 157.47 C61.84 157.98 61.07 158.49 60.28 159.02 C57.34 160.28 56.02 159.98 53 159 C50.59 157.85 50.59 157.85 48.08 156.41 C47.14 155.88 46.21 155.35 45.25 154.8 C44.26 154.23 43.27 153.65 42.25 153.06 C41.22 152.47 40.18 151.88 39.12 151.27 C32.62 147.54 26.15 143.77 19.7 139.95 C10.98 134.79 2.18 129.74 -6.61 124.68 C-11.34 121.96 -16.06 119.23 -20.78 116.49 C-29.81 111.24 -38.88 106.09 -48 101 C-48 100.34 -48 99.68 -48 99 C-47.23 98.56 -46.46 98.12 -45.67 97.67 C-42.74 96.01 -39.81 94.34 -36.89 92.67 C-35.59 91.93 -34.29 91.2 -33 90.46 C-23.92 85.32 -23.92 85.32 -15.01 79.9 C-14 79.26 -14 79.26 -12.96 78.61 C-11.26 77.52 -9.57 76.42 -7.88 75.31 C-4.3 73.68 -2.79 74.09 1 75 C3.71 76.24 3.71 76.24 6.46 77.81 C7.99 78.68 7.99 78.68 9.56 79.56 C10.63 80.18 11.71 80.8 12.81 81.44 C13.92 82.07 15.03 82.7 16.17 83.34 C37.89 95.73 37.89 95.73 45.77 100.77 C48 102.24 48 102.24 50.88 101.94 C54.71 100.79 57.6 99.11 61 97 C61 96.34 61 95.68 61 95 C60.42 94.69 59.85 94.38 59.25 94.06 C39.81 83.56 39.81 83.56 30.44 78 C29.78 77.61 29.11 77.22 28.43 76.81 C27.05 75.99 25.66 75.17 24.28 74.35 C19.8 71.7 15.31 69.06 10.81 66.44 C9.93 65.91 9.04 65.39 8.13 64.85 C7.29 64.36 6.45 63.87 5.58 63.37 C4.84 62.94 4.1 62.5 3.34 62.06 C0.48 60.76 -1.86 60.2 -5 60 C-7.58 60.89 -7.58 60.89 -9.99 62.47 C-11.4 63.32 -11.4 63.32 -12.84 64.18 C-13.84 64.8 -14.84 65.42 -15.88 66.06 C-18.04 67.37 -20.21 68.67 -22.38 69.98 C-23.48 70.65 -24.58 71.32 -25.72 72.01 C-30.73 75.05 -35.8 77.99 -40.88 80.94 C-42.87 82.1 -44.87 83.27 -46.87 84.43 C-53.23 88.14 -59.62 91.82 -66 95.5 C-74.57 100.44 -83.14 105.39 -91.69 110.38 C-92.68 110.95 -93.67 111.53 -94.69 112.12 C-99.06 114.68 -103.43 117.25 -107.76 119.88 C-108.47 120.3 -109.17 120.73 -109.9 121.17 C-111.17 121.95 -112.44 122.73 -113.71 123.51 C-117.78 126 -117.78 126 -120 126 C-120 106.2 -120 86.4 -120 66 C-111.09 61.05 -111.09 61.05 -102 56 C-98.2 53.81 -94.41 51.6 -90.62 49.38 C-81.78 44.19 -72.91 39.07 -64 34 C-55.19 28.98 -46.39 23.92 -37.62 18.81 C-36.66 18.25 -35.69 17.69 -34.7 17.11 C-29.69 14.19 -24.71 11.22 -19.76 8.2 C-18.75 7.59 -17.74 6.98 -16.7 6.35 C-14.78 5.19 -12.86 4.01 -10.95 2.82 C-10.1 2.3 -9.24 1.79 -8.36 1.25 C-7.61 0.79 -6.86 0.33 -6.09 -0.14 C-3.49 -1.21 -2.59 -1.04 0 0 Z " fill="#FDFDFD" transform="translate(191,55)"/>
<path d="" fill="#000000" transform="translate(0,0)"/>
<path d="" fill="#000000" transform="translate(0,0)"/>
<path d="" fill="#000000" transform="translate(0,0)"/>
<path d="" fill="#000000" transform="translate(0,0)"/>
<path d="" fill="#000000" transform="translate(0,0)"/>
<path d="" fill="#000000" transform="translate(0,0)"/>
<path d="" fill="#000000" transform="translate(0,0)"/>
<path d="" fill="#000000" transform="translate(0,0)"/>
<path d="" fill="#000000" transform="translate(0,0)"/>
</svg>
